<svg xmlns="http://www.w3.org/2000/svg" width="512" height="512" viewBox="0 0 512 512">
  <rect width="512" height="512" fill="#0f56c2"/>
  <circle cx="150" cy="120" r="170" fill="#ffffff" opacity="0.06"/>
  <rect x="150" y="92" width="212" height="328" rx="30" fill="#ffffff"/>
  <rect x="170" y="112" width="138" height="214" rx="16" fill="#dce8fa"/>
  <g fill="#1366d6">
    <rect x="184" y="126" width="46" height="40" rx="9"/>
    <rect x="248" y="126" width="46" height="40" rx="9"/>
    <rect x="184" y="178" width="46" height="40" rx="9"/>
    <rect x="248" y="178" width="46" height="40" rx="9"/>
    <rect x="184" y="230" width="46" height="40" rx="9"/>
    <rect x="248" y="230" width="46" height="40" rx="9"/>
  </g>
  <g stroke="#9bb9e6" stroke-width="4" stroke-linecap="round" opacity="0.7">
    <line x1="178" y1="172" x2="300" y2="172"/>
    <line x1="178" y1="224" x2="300" y2="224"/>
    <line x1="178" y1="276" x2="300" y2="276"/>
  </g>
  <rect x="320" y="112" width="26" height="214" rx="10" fill="#e4ecf8"/>
  <circle cx="333" cy="132" r="7" fill="#0a5bc4"/>
  <circle cx="333" cy="156" r="7" fill="#0a5bc4"/>
  <circle cx="333" cy="180" r="7" fill="#0a5bc4"/>
  <rect x="327" y="206" width="12" height="20" rx="6" fill="#0a3f86"/>
  <rect x="324" y="238" width="18" height="14" rx="4" fill="#15c08a"/>
  <rect x="170" y="342" width="176" height="56" rx="14" fill="#0a2f63"/>
  <rect x="182" y="352" width="152" height="30" rx="9" fill="#0a3f86"/>
  <rect x="176" y="416" width="20" height="14" rx="5" fill="#ffffff" opacity="0.85"/>
  <rect x="316" y="416" width="20" height="14" rx="5" fill="#ffffff" opacity="0.85"/>
</svg>
